<mxfile host="Electron" modified="2024-02-06T05:11:14.092Z" agent="Mozilla/5.0 (Macintosh; Intel Mac OS X 10_15_7) AppleWebKit/537.36 (KHTML, like Gecko) draw.io/23.0.2 Chrome/120.0.6099.109 Electron/28.1.0 Safari/537.36" etag="AS2MEUCb0DlNdXaoHqVE" version="23.0.2" type="device">
  <diagram name="第 1 页" id="7gwSHPsd4dURynqpSsxe">
    <mxGraphModel dx="595" dy="427" grid="1" gridSize="10" guides="1" tooltips="1" connect="1" arrows="1" fold="1" page="1" pageScale="1" pageWidth="850" pageHeight="1400" math="0" shadow="0">
      <root>
        <mxCell id="0" />
        <mxCell id="1" parent="0" />
        <mxCell id="q9KCUgzq5eWO8BE-PTbY-10" value="Observer Class监视器对象" style="shape=umlFrame;whiteSpace=wrap;html=1;pointerEvents=0;recursiveResize=0;container=1;collapsible=0;width=160;labelBackgroundColor=none;" parent="1" vertex="1">
          <mxGeometry x="650" y="215" width="280" height="410" as="geometry" />
        </mxCell>
        <mxCell id="q9KCUgzq5eWO8BE-PTbY-11" value="constructor(value)构造器" style="shape=umlFrame;whiteSpace=wrap;html=1;pointerEvents=0;recursiveResize=0;container=1;collapsible=0;width=160;labelBackgroundColor=none;" parent="q9KCUgzq5eWO8BE-PTbY-10" vertex="1">
          <mxGeometry x="20" y="50" width="240" height="180" as="geometry" />
        </mxCell>
        <mxCell id="q9KCUgzq5eWO8BE-PTbY-39" style="edgeStyle=orthogonalEdgeStyle;rounded=0;orthogonalLoop=1;jettySize=auto;html=1;entryX=0.5;entryY=0;entryDx=0;entryDy=0;labelBackgroundColor=none;fontColor=default;" parent="q9KCUgzq5eWO8BE-PTbY-11" source="q9KCUgzq5eWO8BE-PTbY-21" target="q9KCUgzq5eWO8BE-PTbY-38" edge="1">
          <mxGeometry relative="1" as="geometry" />
        </mxCell>
        <mxCell id="q9KCUgzq5eWO8BE-PTbY-21" value="def(value, &#39;__ob__&#39;, this, false)" style="rounded=1;whiteSpace=wrap;html=1;labelBackgroundColor=none;" parent="q9KCUgzq5eWO8BE-PTbY-11" vertex="1">
          <mxGeometry x="20" y="50" width="200" height="40" as="geometry" />
        </mxCell>
        <mxCell id="q9KCUgzq5eWO8BE-PTbY-38" value="this.circulation(value)" style="rounded=1;whiteSpace=wrap;html=1;labelBackgroundColor=none;" parent="q9KCUgzq5eWO8BE-PTbY-11" vertex="1">
          <mxGeometry x="20" y="120" width="200" height="40" as="geometry" />
        </mxCell>
        <mxCell id="q9KCUgzq5eWO8BE-PTbY-12" value="circulation(value)" style="shape=umlFrame;whiteSpace=wrap;html=1;pointerEvents=0;recursiveResize=0;container=1;collapsible=0;width=160;labelBackgroundColor=none;" parent="q9KCUgzq5eWO8BE-PTbY-10" vertex="1">
          <mxGeometry x="20" y="260" width="240" height="130" as="geometry" />
        </mxCell>
        <mxCell id="q9KCUgzq5eWO8BE-PTbY-42" value="defineReactive(value, k)" style="rounded=1;whiteSpace=wrap;html=1;labelBackgroundColor=none;" parent="q9KCUgzq5eWO8BE-PTbY-12" vertex="1">
          <mxGeometry x="30" y="65" width="180" height="40" as="geometry" />
        </mxCell>
        <mxCell id="q9KCUgzq5eWO8BE-PTbY-45" style="edgeStyle=orthogonalEdgeStyle;rounded=0;orthogonalLoop=1;jettySize=auto;html=1;entryX=0.5;entryY=0;entryDx=0;entryDy=0;exitX=0;exitY=0.5;exitDx=0;exitDy=0;labelBackgroundColor=none;fontColor=default;" parent="q9KCUgzq5eWO8BE-PTbY-12" source="q9KCUgzq5eWO8BE-PTbY-42" target="q9KCUgzq5eWO8BE-PTbY-42" edge="1">
          <mxGeometry relative="1" as="geometry">
            <mxPoint x="-310" y="130" as="sourcePoint" />
            <Array as="points">
              <mxPoint x="30" y="90" />
              <mxPoint x="10" y="90" />
              <mxPoint x="10" y="45" />
              <mxPoint x="120" y="45" />
            </Array>
          </mxGeometry>
        </mxCell>
        <mxCell id="74V4QIjUaPxEZGqn5nSR-22" value="for (k in value)" style="edgeLabel;html=1;align=center;verticalAlign=middle;resizable=0;points=[];" vertex="1" connectable="0" parent="q9KCUgzq5eWO8BE-PTbY-45">
          <mxGeometry x="-0.1544" relative="1" as="geometry">
            <mxPoint x="34" as="offset" />
          </mxGeometry>
        </mxCell>
        <mxCell id="q9KCUgzq5eWO8BE-PTbY-41" style="edgeStyle=orthogonalEdgeStyle;rounded=0;orthogonalLoop=1;jettySize=auto;html=1;entryX=0.502;entryY=-0.002;entryDx=0;entryDy=0;entryPerimeter=0;dashed=1;labelBackgroundColor=none;fontColor=default;" parent="q9KCUgzq5eWO8BE-PTbY-10" source="q9KCUgzq5eWO8BE-PTbY-38" target="q9KCUgzq5eWO8BE-PTbY-12" edge="1">
          <mxGeometry relative="1" as="geometry" />
        </mxCell>
        <mxCell id="q9KCUgzq5eWO8BE-PTbY-13" value="Observe(value) 监视函数" style="shape=umlFrame;whiteSpace=wrap;html=1;pointerEvents=0;recursiveResize=0;container=1;collapsible=0;width=160;labelBackgroundColor=none;" parent="1" vertex="1">
          <mxGeometry x="40" y="80" width="550" height="480" as="geometry" />
        </mxCell>
        <mxCell id="q9KCUgzq5eWO8BE-PTbY-19" value="" style="edgeStyle=orthogonalEdgeStyle;rounded=0;orthogonalLoop=1;jettySize=auto;html=1;labelBackgroundColor=none;fontColor=default;" parent="q9KCUgzq5eWO8BE-PTbY-13" source="q9KCUgzq5eWO8BE-PTbY-16" target="q9KCUgzq5eWO8BE-PTbY-18" edge="1">
          <mxGeometry relative="1" as="geometry" />
        </mxCell>
        <mxCell id="q9KCUgzq5eWO8BE-PTbY-20" value="不是对象" style="edgeLabel;html=1;align=center;verticalAlign=middle;resizable=0;points=[];labelBackgroundColor=default;" parent="q9KCUgzq5eWO8BE-PTbY-19" vertex="1" connectable="0">
          <mxGeometry x="-0.1449" y="1" relative="1" as="geometry">
            <mxPoint x="68" y="1" as="offset" />
          </mxGeometry>
        </mxCell>
        <mxCell id="q9KCUgzq5eWO8BE-PTbY-23" value="" style="edgeStyle=orthogonalEdgeStyle;rounded=0;orthogonalLoop=1;jettySize=auto;html=1;exitX=0.5;exitY=1;exitDx=0;exitDy=0;entryX=0.5;entryY=0;entryDx=0;entryDy=0;labelBackgroundColor=none;fontColor=default;" parent="q9KCUgzq5eWO8BE-PTbY-13" source="q9KCUgzq5eWO8BE-PTbY-16" target="q9KCUgzq5eWO8BE-PTbY-22" edge="1">
          <mxGeometry relative="1" as="geometry">
            <Array as="points">
              <mxPoint x="170" y="180" />
              <mxPoint x="170" y="180" />
            </Array>
          </mxGeometry>
        </mxCell>
        <mxCell id="q9KCUgzq5eWO8BE-PTbY-24" value="是对象" style="edgeLabel;html=1;align=center;verticalAlign=middle;resizable=0;points=[];labelBackgroundColor=default;" parent="q9KCUgzq5eWO8BE-PTbY-23" vertex="1" connectable="0">
          <mxGeometry x="-0.1327" y="-1" relative="1" as="geometry">
            <mxPoint as="offset" />
          </mxGeometry>
        </mxCell>
        <mxCell id="q9KCUgzq5eWO8BE-PTbY-16" value="判断value是否是对象&lt;br&gt;Object.prototype.toString.call(value) !== [object Object]" style="rhombus;html=1;rounded=1;labelBackgroundColor=none;" parent="q9KCUgzq5eWO8BE-PTbY-13" vertex="1">
          <mxGeometry x="120" y="50" width="100" height="80" as="geometry" />
        </mxCell>
        <mxCell id="q9KCUgzq5eWO8BE-PTbY-18" value="The End" style="whiteSpace=wrap;html=1;rounded=1;labelBackgroundColor=none;" parent="q9KCUgzq5eWO8BE-PTbY-13" vertex="1">
          <mxGeometry x="410" y="70" width="120" height="40" as="geometry" />
        </mxCell>
        <mxCell id="q9KCUgzq5eWO8BE-PTbY-26" value="" style="edgeStyle=orthogonalEdgeStyle;rounded=0;orthogonalLoop=1;jettySize=auto;html=1;labelBackgroundColor=none;fontColor=default;" parent="q9KCUgzq5eWO8BE-PTbY-13" source="q9KCUgzq5eWO8BE-PTbY-22" target="q9KCUgzq5eWO8BE-PTbY-25" edge="1">
          <mxGeometry relative="1" as="geometry" />
        </mxCell>
        <mxCell id="q9KCUgzq5eWO8BE-PTbY-27" value="判断value对象上&lt;br&gt;是否有__ob__属性" style="edgeLabel;html=1;align=center;verticalAlign=middle;resizable=0;points=[];labelBackgroundColor=default;" parent="q9KCUgzq5eWO8BE-PTbY-26" vertex="1" connectable="0">
          <mxGeometry x="0.0466" y="2" relative="1" as="geometry">
            <mxPoint as="offset" />
          </mxGeometry>
        </mxCell>
        <mxCell id="q9KCUgzq5eWO8BE-PTbY-22" value="定义ob变量" style="whiteSpace=wrap;html=1;rounded=1;labelBackgroundColor=none;" parent="q9KCUgzq5eWO8BE-PTbY-13" vertex="1">
          <mxGeometry x="110" y="190" width="120" height="40" as="geometry" />
        </mxCell>
        <mxCell id="q9KCUgzq5eWO8BE-PTbY-29" value="" style="edgeStyle=orthogonalEdgeStyle;rounded=0;orthogonalLoop=1;jettySize=auto;html=1;labelBackgroundColor=none;fontColor=default;" parent="q9KCUgzq5eWO8BE-PTbY-13" source="q9KCUgzq5eWO8BE-PTbY-25" target="q9KCUgzq5eWO8BE-PTbY-28" edge="1">
          <mxGeometry relative="1" as="geometry" />
        </mxCell>
        <mxCell id="q9KCUgzq5eWO8BE-PTbY-30" value="有" style="edgeLabel;html=1;align=center;verticalAlign=middle;resizable=0;points=[];" parent="q9KCUgzq5eWO8BE-PTbY-29" vertex="1" connectable="0">
          <mxGeometry x="-0.2132" relative="1" as="geometry">
            <mxPoint as="offset" />
          </mxGeometry>
        </mxCell>
        <mxCell id="q9KCUgzq5eWO8BE-PTbY-32" value="" style="edgeStyle=orthogonalEdgeStyle;rounded=0;orthogonalLoop=1;jettySize=auto;html=1;labelBackgroundColor=none;fontColor=default;" parent="q9KCUgzq5eWO8BE-PTbY-13" source="q9KCUgzq5eWO8BE-PTbY-25" target="q9KCUgzq5eWO8BE-PTbY-31" edge="1">
          <mxGeometry relative="1" as="geometry" />
        </mxCell>
        <mxCell id="q9KCUgzq5eWO8BE-PTbY-33" value="无" style="edgeLabel;html=1;align=center;verticalAlign=middle;resizable=0;points=[];labelBackgroundColor=none;" parent="q9KCUgzq5eWO8BE-PTbY-32" vertex="1" connectable="0">
          <mxGeometry x="-0.169" y="-2" relative="1" as="geometry">
            <mxPoint as="offset" />
          </mxGeometry>
        </mxCell>
        <mxCell id="q9KCUgzq5eWO8BE-PTbY-25" value="value.__ob__" style="rhombus;whiteSpace=wrap;html=1;rounded=1;labelBackgroundColor=none;" parent="q9KCUgzq5eWO8BE-PTbY-13" vertex="1">
          <mxGeometry x="110" y="310" width="120" height="60" as="geometry" />
        </mxCell>
        <mxCell id="q9KCUgzq5eWO8BE-PTbY-36" style="edgeStyle=orthogonalEdgeStyle;rounded=0;orthogonalLoop=1;jettySize=auto;html=1;entryX=0;entryY=0.5;entryDx=0;entryDy=0;labelBackgroundColor=none;fontColor=default;" parent="q9KCUgzq5eWO8BE-PTbY-13" source="q9KCUgzq5eWO8BE-PTbY-28" target="q9KCUgzq5eWO8BE-PTbY-34" edge="1">
          <mxGeometry relative="1" as="geometry" />
        </mxCell>
        <mxCell id="q9KCUgzq5eWO8BE-PTbY-28" value="ob = value.__ob__" style="whiteSpace=wrap;html=1;rounded=1;labelBackgroundColor=none;" parent="q9KCUgzq5eWO8BE-PTbY-13" vertex="1">
          <mxGeometry x="110" y="420" width="120" height="40" as="geometry" />
        </mxCell>
        <mxCell id="q9KCUgzq5eWO8BE-PTbY-35" style="edgeStyle=orthogonalEdgeStyle;rounded=0;orthogonalLoop=1;jettySize=auto;html=1;entryX=0.5;entryY=0;entryDx=0;entryDy=0;labelBackgroundColor=none;fontColor=default;" parent="q9KCUgzq5eWO8BE-PTbY-13" source="q9KCUgzq5eWO8BE-PTbY-31" target="q9KCUgzq5eWO8BE-PTbY-34" edge="1">
          <mxGeometry relative="1" as="geometry" />
        </mxCell>
        <mxCell id="q9KCUgzq5eWO8BE-PTbY-31" value="ob = new Observer(value)" style="whiteSpace=wrap;html=1;rounded=1;labelBackgroundColor=none;" parent="q9KCUgzq5eWO8BE-PTbY-13" vertex="1">
          <mxGeometry x="360" y="320" width="170" height="40" as="geometry" />
        </mxCell>
        <mxCell id="q9KCUgzq5eWO8BE-PTbY-34" value="return ob" style="rounded=1;whiteSpace=wrap;html=1;labelBackgroundColor=none;" parent="q9KCUgzq5eWO8BE-PTbY-13" vertex="1">
          <mxGeometry x="360" y="420" width="170" height="40" as="geometry" />
        </mxCell>
        <mxCell id="74V4QIjUaPxEZGqn5nSR-1" value="def(obj, key, value, enumerable)" style="shape=umlFrame;whiteSpace=wrap;html=1;pointerEvents=0;recursiveResize=0;container=1;collapsible=0;width=200;height=30;labelBackgroundColor=none;" vertex="1" parent="1">
          <mxGeometry x="1000" y="255" width="240" height="160" as="geometry" />
        </mxCell>
        <mxCell id="74V4QIjUaPxEZGqn5nSR-2" value="Object.defineProperty(obj, key, {&lt;br&gt;&lt;span style=&quot;white-space: pre;&quot;&gt;&#x9;&lt;/span&gt;writable: true,&lt;br&gt;&lt;span style=&quot;white-space: pre;&quot;&gt;&#x9;&lt;/span&gt;configurable: true,&lt;br&gt;&lt;span style=&quot;white-space: pre;&quot;&gt;&#x9;&lt;/span&gt;enumerable: !!enumerable,&lt;br&gt;&lt;span style=&quot;white-space: pre;&quot;&gt;&#x9;&lt;/span&gt;value,&lt;br&gt;})" style="text;html=1;align=left;verticalAlign=middle;resizable=0;points=[];autosize=1;strokeColor=none;fillColor=none;labelBackgroundColor=none;" vertex="1" parent="74V4QIjUaPxEZGqn5nSR-1">
          <mxGeometry x="20" y="50" width="190" height="100" as="geometry" />
        </mxCell>
        <mxCell id="74V4QIjUaPxEZGqn5nSR-3" style="edgeStyle=orthogonalEdgeStyle;rounded=0;orthogonalLoop=1;jettySize=auto;html=1;entryX=0;entryY=0.5;entryDx=0;entryDy=0;entryPerimeter=0;dashed=1;labelBackgroundColor=none;fontColor=default;" edge="1" parent="1" source="q9KCUgzq5eWO8BE-PTbY-21" target="74V4QIjUaPxEZGqn5nSR-1">
          <mxGeometry relative="1" as="geometry" />
        </mxCell>
        <mxCell id="74V4QIjUaPxEZGqn5nSR-4" value="defineReactive(data, key, ...args)" style="shape=umlFrame;whiteSpace=wrap;html=1;pointerEvents=0;recursiveResize=0;container=1;collapsible=0;width=260;height=30;labelBackgroundColor=none;" vertex="1" parent="1">
          <mxGeometry x="1000" y="450" width="400" height="560" as="geometry" />
        </mxCell>
        <mxCell id="74V4QIjUaPxEZGqn5nSR-7" value="" style="edgeStyle=orthogonalEdgeStyle;rounded=0;orthogonalLoop=1;jettySize=auto;html=1;labelBackgroundColor=none;fontColor=default;" edge="1" parent="74V4QIjUaPxEZGqn5nSR-4" source="74V4QIjUaPxEZGqn5nSR-5" target="74V4QIjUaPxEZGqn5nSR-6">
          <mxGeometry relative="1" as="geometry" />
        </mxCell>
        <mxCell id="74V4QIjUaPxEZGqn5nSR-15" value="if" style="edgeLabel;html=1;align=center;verticalAlign=middle;resizable=0;points=[];" vertex="1" connectable="0" parent="74V4QIjUaPxEZGqn5nSR-7">
          <mxGeometry x="-0.1667" relative="1" as="geometry">
            <mxPoint as="offset" />
          </mxGeometry>
        </mxCell>
        <mxCell id="74V4QIjUaPxEZGqn5nSR-5" value="定义val为args的第一项&lt;br&gt;val = args[0]" style="rounded=1;whiteSpace=wrap;html=1;labelBackgroundColor=none;" vertex="1" parent="74V4QIjUaPxEZGqn5nSR-4">
          <mxGeometry x="50" y="40" width="140" height="40" as="geometry" />
        </mxCell>
        <mxCell id="74V4QIjUaPxEZGqn5nSR-11" value="" style="edgeStyle=orthogonalEdgeStyle;rounded=0;hachureGap=4;orthogonalLoop=1;jettySize=auto;html=1;fontFamily=Architects Daughter;fontSource=https%3A%2F%2Ffonts.googleapis.com%2Fcss%3Ffamily%3DArchitects%2BDaughter;fontSize=16;labelBackgroundColor=none;fontColor=default;strokeColor=default;shadow=0;" edge="1" parent="74V4QIjUaPxEZGqn5nSR-4" source="74V4QIjUaPxEZGqn5nSR-6" target="74V4QIjUaPxEZGqn5nSR-10">
          <mxGeometry relative="1" as="geometry" />
        </mxCell>
        <mxCell id="74V4QIjUaPxEZGqn5nSR-12" value="yes" style="edgeLabel;align=center;verticalAlign=middle;resizable=0;points=[];" vertex="1" connectable="0" parent="74V4QIjUaPxEZGqn5nSR-11">
          <mxGeometry x="-0.2507" y="-1" relative="1" as="geometry">
            <mxPoint y="-1" as="offset" />
          </mxGeometry>
        </mxCell>
        <mxCell id="74V4QIjUaPxEZGqn5nSR-17" value="" style="edgeStyle=orthogonalEdgeStyle;rounded=0;hachureGap=4;orthogonalLoop=1;jettySize=auto;html=1;fontFamily=Architects Daughter;fontSource=https%3A%2F%2Ffonts.googleapis.com%2Fcss%3Ffamily%3DArchitects%2BDaughter;fontSize=16;" edge="1" parent="74V4QIjUaPxEZGqn5nSR-4" source="74V4QIjUaPxEZGqn5nSR-6" target="74V4QIjUaPxEZGqn5nSR-16">
          <mxGeometry relative="1" as="geometry" />
        </mxCell>
        <mxCell id="74V4QIjUaPxEZGqn5nSR-6" value="args.length === 0" style="rhombus;html=1;rounded=1;labelBackgroundColor=none;" vertex="1" parent="74V4QIjUaPxEZGqn5nSR-4">
          <mxGeometry x="50" y="120" width="140" height="40" as="geometry" />
        </mxCell>
        <mxCell id="74V4QIjUaPxEZGqn5nSR-18" style="edgeStyle=orthogonalEdgeStyle;rounded=0;hachureGap=4;orthogonalLoop=1;jettySize=auto;html=1;entryX=1;entryY=0.5;entryDx=0;entryDy=0;fontFamily=Architects Daughter;fontSource=https%3A%2F%2Ffonts.googleapis.com%2Fcss%3Ffamily%3DArchitects%2BDaughter;fontSize=16;exitX=0.5;exitY=1;exitDx=0;exitDy=0;" edge="1" parent="74V4QIjUaPxEZGqn5nSR-4" source="74V4QIjUaPxEZGqn5nSR-10" target="74V4QIjUaPxEZGqn5nSR-16">
          <mxGeometry relative="1" as="geometry" />
        </mxCell>
        <mxCell id="74V4QIjUaPxEZGqn5nSR-10" value="val = data[key]" style="whiteSpace=wrap;html=1;rounded=1;labelBackgroundColor=none;" vertex="1" parent="74V4QIjUaPxEZGqn5nSR-4">
          <mxGeometry x="260" y="120" width="120" height="40" as="geometry" />
        </mxCell>
        <mxCell id="74V4QIjUaPxEZGqn5nSR-13" style="edgeStyle=orthogonalEdgeStyle;rounded=0;sketch=1;hachureGap=4;jiggle=2;curveFitting=1;orthogonalLoop=1;jettySize=auto;html=1;exitX=0.5;exitY=1;exitDx=0;exitDy=0;fontFamily=Architects Daughter;fontSource=https%3A%2F%2Ffonts.googleapis.com%2Fcss%3Ffamily%3DArchitects%2BDaughter;fontSize=16;" edge="1" parent="74V4QIjUaPxEZGqn5nSR-4" source="74V4QIjUaPxEZGqn5nSR-10" target="74V4QIjUaPxEZGqn5nSR-10">
          <mxGeometry relative="1" as="geometry" />
        </mxCell>
        <mxCell id="74V4QIjUaPxEZGqn5nSR-39" style="edgeStyle=orthogonalEdgeStyle;rounded=0;orthogonalLoop=1;jettySize=auto;html=1;entryX=0.5;entryY=0;entryDx=0;entryDy=0;" edge="1" parent="74V4QIjUaPxEZGqn5nSR-4" source="74V4QIjUaPxEZGqn5nSR-16" target="74V4QIjUaPxEZGqn5nSR-37">
          <mxGeometry relative="1" as="geometry" />
        </mxCell>
        <mxCell id="74V4QIjUaPxEZGqn5nSR-16" value="监听val，看是否是对象&lt;br&gt;childObj = observe(val)" style="whiteSpace=wrap;html=1;rounded=1;labelBackgroundColor=none;" vertex="1" parent="74V4QIjUaPxEZGqn5nSR-4">
          <mxGeometry x="50" y="220" width="140" height="40" as="geometry" />
        </mxCell>
        <mxCell id="74V4QIjUaPxEZGqn5nSR-37" value="Object.defineProperty(data, key, {&lt;br style=&quot;&quot;&gt;&lt;span style=&quot;background-color: rgb(24, 20, 29);&quot;&gt;&amp;nbsp; &amp;nbsp; enumerable: true,&lt;/span&gt;&lt;br style=&quot;&quot;&gt;&lt;span style=&quot;background-color: rgb(24, 20, 29);&quot;&gt;&amp;nbsp; &amp;nbsp; configurable: true,&lt;/span&gt;&lt;br style=&quot;&quot;&gt;&lt;span style=&quot;background-color: rgb(24, 20, 29);&quot;&gt;&amp;nbsp; &amp;nbsp; get() {&lt;/span&gt;&lt;br style=&quot;&quot;&gt;&lt;span style=&quot;background-color: rgb(24, 20, 29);&quot;&gt;&amp;nbsp; &amp;nbsp; &amp;nbsp; console.log(&#39;get..&#39;, val);&lt;/span&gt;&lt;br style=&quot;&quot;&gt;&lt;span style=&quot;background-color: rgb(24, 20, 29);&quot;&gt;&amp;nbsp; &amp;nbsp; &amp;nbsp; return val;&lt;/span&gt;&lt;br style=&quot;&quot;&gt;&lt;span style=&quot;background-color: rgb(24, 20, 29);&quot;&gt;&amp;nbsp; &amp;nbsp; },&lt;/span&gt;&lt;br style=&quot;&quot;&gt;&lt;span style=&quot;background-color: rgb(24, 20, 29);&quot;&gt;&amp;nbsp; &amp;nbsp; set(newVal) {&lt;/span&gt;&lt;br style=&quot;&quot;&gt;&lt;span style=&quot;background-color: rgb(24, 20, 29);&quot;&gt;&amp;nbsp; &amp;nbsp; &amp;nbsp; if (newVal !== val) {&lt;/span&gt;&lt;br style=&quot;&quot;&gt;&lt;span style=&quot;background-color: rgb(24, 20, 29);&quot;&gt;&amp;nbsp; &amp;nbsp; &amp;nbsp; &amp;nbsp; val = newVal;&lt;/span&gt;&lt;br style=&quot;&quot;&gt;&lt;span style=&quot;background-color: rgb(24, 20, 29);&quot;&gt;&amp;nbsp; &amp;nbsp; &amp;nbsp; &amp;nbsp; childOb = observe(newVal)&lt;/span&gt;&lt;br style=&quot;&quot;&gt;&lt;span style=&quot;background-color: rgb(24, 20, 29);&quot;&gt;&amp;nbsp; &amp;nbsp; &amp;nbsp; }&lt;/span&gt;&lt;br style=&quot;&quot;&gt;&lt;span style=&quot;background-color: rgb(24, 20, 29);&quot;&gt;&amp;nbsp; &amp;nbsp; }&lt;/span&gt;&lt;br style=&quot;&quot;&gt;&lt;span style=&quot;background-color: rgb(24, 20, 29);&quot;&gt;})&lt;/span&gt;" style="rounded=0;whiteSpace=wrap;html=1;align=left;verticalAlign=top;" vertex="1" parent="74V4QIjUaPxEZGqn5nSR-4">
          <mxGeometry x="10" y="310" width="220" height="230" as="geometry" />
        </mxCell>
        <mxCell id="74V4QIjUaPxEZGqn5nSR-19" style="edgeStyle=orthogonalEdgeStyle;rounded=0;hachureGap=4;orthogonalLoop=1;jettySize=auto;html=1;fontFamily=Architects Daughter;fontSource=https%3A%2F%2Ffonts.googleapis.com%2Fcss%3Ffamily%3DArchitects%2BDaughter;fontSize=16;dashed=1;strokeColor=#FF3333;" edge="1" parent="1" source="74V4QIjUaPxEZGqn5nSR-16" target="q9KCUgzq5eWO8BE-PTbY-13">
          <mxGeometry relative="1" as="geometry" />
        </mxCell>
        <mxCell id="74V4QIjUaPxEZGqn5nSR-20" style="edgeStyle=orthogonalEdgeStyle;rounded=0;hachureGap=4;orthogonalLoop=1;jettySize=auto;html=1;entryX=0.001;entryY=0.5;entryDx=0;entryDy=0;entryPerimeter=0;fontFamily=Architects Daughter;fontSource=https%3A%2F%2Ffonts.googleapis.com%2Fcss%3Ffamily%3DArchitects%2BDaughter;fontSize=16;dashed=1;fillColor=#a20025;strokeColor=#FF3333;" edge="1" parent="1" source="q9KCUgzq5eWO8BE-PTbY-31" target="q9KCUgzq5eWO8BE-PTbY-10">
          <mxGeometry relative="1" as="geometry" />
        </mxCell>
        <mxCell id="74V4QIjUaPxEZGqn5nSR-21" style="edgeStyle=orthogonalEdgeStyle;rounded=0;hachureGap=4;orthogonalLoop=1;jettySize=auto;html=1;entryX=-0.005;entryY=0.196;entryDx=0;entryDy=0;entryPerimeter=0;fontFamily=Architects Daughter;fontSource=https%3A%2F%2Ffonts.googleapis.com%2Fcss%3Ffamily%3DArchitects%2BDaughter;fontSize=16;dashed=1;strokeColor=#FF3333;" edge="1" parent="1" source="q9KCUgzq5eWO8BE-PTbY-42" target="74V4QIjUaPxEZGqn5nSR-4">
          <mxGeometry relative="1" as="geometry" />
        </mxCell>
      </root>
    </mxGraphModel>
  </diagram>
</mxfile>
